{"title":"Oblivion.2013.CAM.XViD.READNFO-FANTA","uid":8363915,"size":1186257679,"categoryP":"video","categoryS":"movies","magnet":"?xt=urn:btih:e6bfe69129ef6e7c0f570a00aa7618ded5f4869b&amp;dn=Oblivion.2013.CAM.XViD.READNFO-FANTA&amp;tr=udp%3A%2F%2Ftracker.openbittorrent.com%3A80&amp;tr=udp%3A%2F%2Fopen.demonii.com%3A1337&amp;tr=udp%3A%2F%2Ftracker.coppersurfer.tk%3A6969&amp;tr=udp%3A%2F%2Fexodus.desync.com%3A6969","seeders":3,"leechers":0,"uploader":"xxxlavalxxx","files":-1,"time":1365714198,"description":" &lt;a href=&quot;\nhttp://www.imdb.com/title/tt1483013/&quot; rel=&quot;nofollow&quot; target=&quot;_NEW&quot;&gt;\nhttp://www.imdb.com/title/tt1483013/&lt;/a&gt;\n\n\n\nA veteran assigned to extract Earth's remaining resources begins to question what he knows about his mission and himself. \n\n\n\nDirector:\n Joseph Kosinski \n\nWriters:\n Joseph Kosinski ,Karl Gajdusek \n\nStars:\n Tom Cruise, Morgan Freeman, Andrea Riseborough \n\nGenres:\n  Action |  Adventure |  Sci-Fi |  Thriller \n\nCountry:\n USA \n\nLanguage:\n English \n\n\n\n\n\nFormat                                   : AVI\nFormat/Info                              : Audio Video Interleave\nFormat profile                           : OpenDML\nFormat settings                          : rec\nFile size                                : 1.05 GiB\nDuration                                 : 1h 57mn\nOverall bit rate                         : 1 287 Kbps\nWriting application                      : AVI-Mux GUI 1.17.8.3, Feb 16 201019:42:50\n\nVideo\nID                                       : 0\nFormat                                   : MPEG-4 Visual\nFormat profile                           : Advanced Simple@L5\nFormat settings, BVOP                    : 1\nFormat settings, QPel                    : No\nFormat settings, GMC                     : No warppoints\nFormat settings, Matrix                  : Default (H.263)\nMuxing mode                              : Packed bitstream\nCodec ID                                 : XVID\nCodec ID/Hint                            : XviD\nDuration                                 : 1h 57mn\nBit rate                                 : 1 090 Kbps\nWidth                                    : 720 pixels\nHeight                                   : 272 pixels\nDisplay aspect ratio                     : 2.647\nFrame rate                               : 25.000 fps\nColor space                              : YUV\nChroma subsampling                       : 4:2:0\nBit depth                                : 8 bits\nScan type                                : Progressive\nCompression mode                         : Lossy\nBits/(Pixel*Frame)                       : 0.223\nStream size                              : 912 MiB (85%)\nWriting library                          : XviD 64\n\nAudio\nID                                       : 1\nFormat                                   : AC-3\nFormat/Info                              : Audio Coding 3\nMode extension                           : CM (complete main)\nFormat settings, Endianness              : Big\nCodec ID                                 : 2000\nDuration                                 : 1h 57mn\nBit rate mode                            : Constant\nBit rate                                 : 192 Kbps\nChannel(s)                               : 2 channels\nChannel positions                        : Front: L R\nSampling rate                            : 48.0 KHz\nBit depth                                : 16 bits\nCompression mode                         : Lossy\nStream size                              : 161 MiB (15%)\nAlignment                                : Aligned on interleaves\nInterleave, duration                     : 64 ms (1.60 video frames)\nInterleave, preload duration             : 192 ms\nTitle                                    : audio-fanta\n\n\n\n &lt;a href=&quot;\nhttp://www.shotpix.com/images/03021851308197387071.png&quot; rel=&quot;nofollow&quot; target=&quot;_NEW&quot;&gt;\nhttp://www.shotpix.com/images/03021851308197387071.png&lt;/a&gt;\n &lt;a href=&quot;\nhttp://www.shotpix.com/images/11676404468591338032.png&quot; rel=&quot;nofollow&quot; target=&quot;_NEW&quot;&gt;\nhttp://www.shotpix.com/images/11676404468591338032.png&lt;/a&gt;\n &lt;a href=&quot;\nhttp://www.shotpix.com/images/73420942179497253732.png&quot; rel=&quot;nofollow&quot; target=&quot;_NEW&quot;&gt;\nhttp://www.shotpix.com/images/73420942179497253732.png&lt;/a&gt;","torrent":{"xt":"urn:btih:e6bfe69129ef6e7c0f570a00aa7618ded5f4869b","amp;dn":"Oblivion.2013.CAM.XViD.READNFO-FANTA","amp;tr":["udp%3A%2F%2Ftracker.openbittorrent.com%3A80","udp%3A%2F%2Fopen.demonii.com%3A1337","udp%3A%2F%2Ftracker.coppersurfer.tk%3A6969","udp%3A%2F%2Fexodus.desync.com%3A6969"],"infoHash":"e6bfe69129ef6e7c0f570a00aa7618ded5f4869b","infoHashBuffer":{"type":"Buffer","data":[230,191,230,145,41,239,110,124,15,87,10,0,170,118,24,222,213,244,134,155]},"announce":[],"urlList":[]}}